<mxfile host="app.diagrams.net" modified="2021-06-03T00:36:14.798Z" agent="5.0 (Windows NT 10.0; Win64; x64) AppleWebKit/537.36 (KHTML, like Gecko) Chrome/90.0.4430.212 Safari/537.36" etag="WKUHCm3oAqZVwRv6qfc5" version="14.7.4" type="github">
  <diagram id="rXupBVqp45QyanCTLPGE" name="Page-1">
    <mxGraphModel dx="868" dy="1619" grid="1" gridSize="10" guides="1" tooltips="1" connect="1" arrows="1" fold="1" page="1" pageScale="1" pageWidth="827" pageHeight="1169" math="0" shadow="0">
      <root>
        <mxCell id="0" />
        <mxCell id="1" parent="0" />
        <mxCell id="VzS7enOmEXTkIAW0RBW0-4" value="" style="rounded=0;whiteSpace=wrap;html=1;" vertex="1" parent="1">
          <mxGeometry x="220" y="-679" width="485" height="900" as="geometry" />
        </mxCell>
        <mxCell id="VzS7enOmEXTkIAW0RBW0-5" value="Sistema Flight Control" style="text;html=1;strokeColor=none;fillColor=none;align=center;verticalAlign=middle;whiteSpace=wrap;rounded=0;fontStyle=1;fontSize=14;" vertex="1" parent="1">
          <mxGeometry x="390" y="-650" width="160" height="20" as="geometry" />
        </mxCell>
        <mxCell id="VzS7enOmEXTkIAW0RBW0-6" value="" style="shape=umlActor;verticalLabelPosition=bottom;verticalAlign=top;html=1;outlineConnect=0;fontSize=14;" vertex="1" parent="1">
          <mxGeometry x="270" y="-400" width="40" height="70" as="geometry" />
        </mxCell>
        <mxCell id="VzS7enOmEXTkIAW0RBW0-8" value="" style="ellipse;whiteSpace=wrap;html=1;fontSize=14;" vertex="1" parent="1">
          <mxGeometry x="550" y="-610" width="120" height="80" as="geometry" />
        </mxCell>
        <mxCell id="VzS7enOmEXTkIAW0RBW0-9" value="" style="ellipse;whiteSpace=wrap;html=1;fontSize=14;" vertex="1" parent="1">
          <mxGeometry x="550" y="-489" width="120" height="80" as="geometry" />
        </mxCell>
        <mxCell id="VzS7enOmEXTkIAW0RBW0-10" value="" style="ellipse;whiteSpace=wrap;html=1;fontSize=14;" vertex="1" parent="1">
          <mxGeometry x="553" y="-370" width="120" height="80" as="geometry" />
        </mxCell>
        <mxCell id="VzS7enOmEXTkIAW0RBW0-11" value="" style="ellipse;whiteSpace=wrap;html=1;fontSize=14;" vertex="1" parent="1">
          <mxGeometry x="553" y="-250" width="120" height="80" as="geometry" />
        </mxCell>
        <mxCell id="VzS7enOmEXTkIAW0RBW0-12" value="" style="ellipse;whiteSpace=wrap;html=1;fontSize=14;" vertex="1" parent="1">
          <mxGeometry x="556" y="-120" width="120" height="80" as="geometry" />
        </mxCell>
        <mxCell id="VzS7enOmEXTkIAW0RBW0-14" value="" style="ellipse;whiteSpace=wrap;html=1;fontSize=14;" vertex="1" parent="1">
          <mxGeometry x="556" width="120" height="80" as="geometry" />
        </mxCell>
        <mxCell id="VzS7enOmEXTkIAW0RBW0-15" value="" style="ellipse;whiteSpace=wrap;html=1;fontSize=14;" vertex="1" parent="1">
          <mxGeometry x="556" y="120" width="120" height="80" as="geometry" />
        </mxCell>
        <mxCell id="VzS7enOmEXTkIAW0RBW0-20" value="" style="endArrow=none;html=1;fontSize=14;entryX=0.017;entryY=0.675;entryDx=0;entryDy=0;entryPerimeter=0;exitX=0.5;exitY=0.5;exitDx=0;exitDy=0;exitPerimeter=0;" edge="1" parent="1" source="VzS7enOmEXTkIAW0RBW0-6" target="VzS7enOmEXTkIAW0RBW0-8">
          <mxGeometry width="50" height="50" relative="1" as="geometry">
            <mxPoint x="390" y="-450" as="sourcePoint" />
            <mxPoint x="440" y="-500" as="targetPoint" />
          </mxGeometry>
        </mxCell>
        <mxCell id="VzS7enOmEXTkIAW0RBW0-21" value="" style="endArrow=none;html=1;fontSize=14;entryX=0;entryY=0.5;entryDx=0;entryDy=0;exitX=0.5;exitY=0.5;exitDx=0;exitDy=0;exitPerimeter=0;" edge="1" parent="1" source="VzS7enOmEXTkIAW0RBW0-6" target="VzS7enOmEXTkIAW0RBW0-9">
          <mxGeometry width="50" height="50" relative="1" as="geometry">
            <mxPoint x="352" y="-371.60580768562" as="sourcePoint" />
            <mxPoint x="562.04" y="-546" as="targetPoint" />
          </mxGeometry>
        </mxCell>
        <mxCell id="VzS7enOmEXTkIAW0RBW0-22" value="" style="endArrow=none;html=1;fontSize=14;entryX=0;entryY=0.5;entryDx=0;entryDy=0;exitX=0.5;exitY=0.5;exitDx=0;exitDy=0;exitPerimeter=0;" edge="1" parent="1" source="VzS7enOmEXTkIAW0RBW0-6" target="VzS7enOmEXTkIAW0RBW0-10">
          <mxGeometry width="50" height="50" relative="1" as="geometry">
            <mxPoint x="352" y="-366.66666666666674" as="sourcePoint" />
            <mxPoint x="560" y="-439" as="targetPoint" />
          </mxGeometry>
        </mxCell>
        <mxCell id="VzS7enOmEXTkIAW0RBW0-23" value="" style="endArrow=none;html=1;fontSize=14;entryX=0;entryY=0.5;entryDx=0;entryDy=0;exitX=0.5;exitY=0.5;exitDx=0;exitDy=0;exitPerimeter=0;" edge="1" parent="1" source="VzS7enOmEXTkIAW0RBW0-6" target="VzS7enOmEXTkIAW0RBW0-11">
          <mxGeometry width="50" height="50" relative="1" as="geometry">
            <mxPoint x="332" y="-355" as="sourcePoint" />
            <mxPoint x="563" y="-320" as="targetPoint" />
          </mxGeometry>
        </mxCell>
        <mxCell id="VzS7enOmEXTkIAW0RBW0-24" value="" style="endArrow=none;html=1;fontSize=14;exitX=0.5;exitY=0.5;exitDx=0;exitDy=0;exitPerimeter=0;entryX=0;entryY=0.5;entryDx=0;entryDy=0;" edge="1" parent="1" source="VzS7enOmEXTkIAW0RBW0-6" target="VzS7enOmEXTkIAW0RBW0-12">
          <mxGeometry width="50" height="50" relative="1" as="geometry">
            <mxPoint x="332" y="-355" as="sourcePoint" />
            <mxPoint x="563" y="-200" as="targetPoint" />
          </mxGeometry>
        </mxCell>
        <mxCell id="VzS7enOmEXTkIAW0RBW0-25" value="" style="endArrow=none;html=1;fontSize=14;entryX=0;entryY=0.5;entryDx=0;entryDy=0;exitX=0.5;exitY=0.5;exitDx=0;exitDy=0;exitPerimeter=0;" edge="1" parent="1" source="VzS7enOmEXTkIAW0RBW0-6" target="VzS7enOmEXTkIAW0RBW0-14">
          <mxGeometry width="50" height="50" relative="1" as="geometry">
            <mxPoint x="310" y="-370" as="sourcePoint" />
            <mxPoint x="566" y="-70" as="targetPoint" />
          </mxGeometry>
        </mxCell>
        <mxCell id="VzS7enOmEXTkIAW0RBW0-26" value="" style="endArrow=none;html=1;fontSize=14;entryX=0;entryY=0.5;entryDx=0;entryDy=0;" edge="1" parent="1" target="VzS7enOmEXTkIAW0RBW0-15">
          <mxGeometry width="50" height="50" relative="1" as="geometry">
            <mxPoint x="290" y="-365" as="sourcePoint" />
            <mxPoint x="566" y="50" as="targetPoint" />
          </mxGeometry>
        </mxCell>
        <mxCell id="VzS7enOmEXTkIAW0RBW0-36" value="Funcionário&lt;br&gt;Gerente" style="text;html=1;strokeColor=none;fillColor=none;align=center;verticalAlign=middle;whiteSpace=wrap;rounded=0;fontSize=13;fontStyle=1" vertex="1" parent="1">
          <mxGeometry x="261" y="-313" width="40" height="20" as="geometry" />
        </mxCell>
        <mxCell id="VzS7enOmEXTkIAW0RBW0-37" value="Cadastrar&lt;br&gt;cliente" style="text;html=1;strokeColor=none;fillColor=none;align=center;verticalAlign=middle;whiteSpace=wrap;rounded=0;fontSize=13;fontStyle=1" vertex="1" parent="1">
          <mxGeometry x="590" y="-580" width="40" height="20" as="geometry" />
        </mxCell>
        <mxCell id="VzS7enOmEXTkIAW0RBW0-38" value="Cadastrar&lt;br&gt;voo" style="text;html=1;strokeColor=none;fillColor=none;align=center;verticalAlign=middle;whiteSpace=wrap;rounded=0;fontSize=13;fontStyle=1" vertex="1" parent="1">
          <mxGeometry x="591" y="-456" width="40" height="20" as="geometry" />
        </mxCell>
        <mxCell id="VzS7enOmEXTkIAW0RBW0-39" value="Cadastrar&lt;br&gt;Cidade" style="text;html=1;strokeColor=none;fillColor=none;align=center;verticalAlign=middle;whiteSpace=wrap;rounded=0;fontSize=13;fontStyle=1" vertex="1" parent="1">
          <mxGeometry x="594" y="-337" width="40" height="20" as="geometry" />
        </mxCell>
        <mxCell id="VzS7enOmEXTkIAW0RBW0-42" value="Cadastrar&lt;br&gt;aeronave" style="text;html=1;strokeColor=none;fillColor=none;align=center;verticalAlign=middle;whiteSpace=wrap;rounded=0;fontSize=13;fontStyle=1" vertex="1" parent="1">
          <mxGeometry x="599" y="-90" width="40" height="20" as="geometry" />
        </mxCell>
        <mxCell id="VzS7enOmEXTkIAW0RBW0-43" value="Cadastrar&lt;br&gt;ponto de venda" style="text;html=1;strokeColor=none;fillColor=none;align=center;verticalAlign=middle;whiteSpace=wrap;rounded=0;fontSize=13;fontStyle=1" vertex="1" parent="1">
          <mxGeometry x="599" y="30" width="40" height="20" as="geometry" />
        </mxCell>
        <mxCell id="VzS7enOmEXTkIAW0RBW0-44" value="Cadastrar&lt;br&gt;funcionário" style="text;html=1;strokeColor=none;fillColor=none;align=center;verticalAlign=middle;whiteSpace=wrap;rounded=0;fontSize=13;fontStyle=1" vertex="1" parent="1">
          <mxGeometry x="599" y="152" width="40" height="20" as="geometry" />
        </mxCell>
        <mxCell id="VzS7enOmEXTkIAW0RBW0-45" value="Cadastrar&lt;br&gt;reserva&lt;br&gt;" style="text;html=1;strokeColor=none;fillColor=none;align=center;verticalAlign=middle;whiteSpace=wrap;rounded=0;fontSize=13;fontStyle=1" vertex="1" parent="1">
          <mxGeometry x="593" y="-220" width="40" height="20" as="geometry" />
        </mxCell>
      </root>
    </mxGraphModel>
  </diagram>
</mxfile>
